<?xml version="1.0" encoding="UTF-8" standalone="no"?>
<!-- Created with Inkscape (http://www.inkscape.org/) -->
<svg id="svg2" xmlns:rdf="http://www.w3.org/1999/02/22-rdf-syntax-ns#" xmlns="http://www.w3.org/2000/svg" xml:space="preserve" height="197.59" width="361" version="1.1" xmlns:cc="http://creativecommons.org/ns#" xmlns:dc="http://purl.org/dc/elements/1.1/"><metadata id="metadata8"><rdf:RDF><cc:Work rdf:about=""><dc:format>image/svg+xml</dc:format><dc:type rdf:resource="http://purl.org/dc/dcmitype/StillImage"/><dc:title/></cc:Work></rdf:RDF></metadata><path id="path992-2" d="m273.69 95.305v5.045h-1.015c-0.725 0-1.1012 0.55-1.1012 1.1 0 0.55125 0.37625 1.1025 1.1012 1.1025h1.015v8.2025c0 2.1162 1.68 3.7975 3.7962 3.7975 0.78375 0 1.1012-0.52125 1.1012-1.0725 0-0.55-0.3175-1.0438-1.0138-1.1012-0.89875-0.0575-1.6812-0.63875-1.6812-1.6538v-8.1725h1.565c0.72375 0 1.1012-0.55125 1.1012-1.1025 0-0.55-0.3775-1.1-1.1012-1.1h-1.565v-5.045c0-0.72375-0.55125-1.1012-1.1012-1.1012-0.55125 0-1.1012 0.3775-1.1012 1.1012m-8.2762 0v15.45c0 2.1162 1.6812 3.7975 3.7975 3.7975 0.7825 0 1.1012-0.52125 1.1012-1.0725 0-0.55-0.31875-1.1012-1.1012-1.1012-0.89875-0.03-1.595-0.725-1.595-1.6238v-15.45c0-0.72375-0.55-1.1012-1.1012-1.1012-0.55125 0-1.1012 0.3775-1.1012 1.1012m-49.814 0v18.175c0 0.72375 0.55 1.0725 1.1 1.0725 0.55125 0 1.1025-0.34875 1.1025-1.0725v-3.7388l1.9425-2.0875 3.6238 6.3475c0.23125 0.435 0.57875 0.55125 0.92625 0.55125 0.6675 0 1.1312-0.49375 1.1312-1.0725 0-0.2025-0.03-0.3475-0.145-0.55l-3.9712-6.9575 3.5938-3.8262c0.20375-0.2025 0.32-0.46375 0.32-0.75375 0-0.58-0.465-1.13-1.1312-1.13-0.29 0-0.55125 0.115-0.7825 0.37625l-5.5075 5.8562v-11.19c0-0.72375-0.55125-1.1012-1.1025-1.1012-0.55 0-1.1 0.3775-1.1 1.1012m-19.598 0v0.6375c0 0.725 0.55125 1.1025 1.1012 1.1025 0.55125 0 1.1012-0.3775 1.1012-1.1025v-0.6375c0-0.72375-0.55-1.1012-1.1012-1.1012-0.55 0-1.1012 0.3775-1.1012 1.1012m-13.315 0v18.175c0 0.72375 0.55 1.0725 1.1012 1.0725 0.55 0 1.1012-0.34875 1.1012-1.0725v-8.6962c0-1.5062 1.3325-2.3188 2.6388-2.3188 1.2738 0 2.5788 0.75375 2.5788 2.4638v8.5512c0 0.72375 0.55 1.0725 1.1012 1.0725 0.55 0 1.1012-0.34875 1.1012-1.0725v-8.5512c0-2.58-2.0862-4.6662-4.6662-4.6662h-0.23125c-1.015 0-2.03 0.31875-2.5225 0.86875v-5.8262c0-0.72375-0.55125-1.1012-1.1012-1.1012-0.55125 0-1.1012 0.3775-1.1012 1.1012m-8.765 0v5.045h-1.015c-0.72375 0-1.1012 0.55-1.1012 1.1 0 0.55125 0.3775 1.1025 1.1012 1.1025h1.015v8.2025c0 2.1162 1.68 3.7975 3.7962 3.7975 0.7825 0 1.1025-0.52125 1.1025-1.0725 0-0.55-0.32-1.0438-1.015-1.1012-0.89875-0.0575-1.6812-0.63875-1.6812-1.6538v-8.1725h1.565c0.725 0 1.1012-0.55125 1.1012-1.1025 0-0.55-0.37625-1.1-1.1012-1.1h-1.565v-5.045c0-0.72375-0.55125-1.1012-1.1012-1.1012-0.55125 0-1.1012 0.3775-1.1012 1.1012m137.22 4.9575c-2.58 0-4.6675 2.0862-4.6675 4.6662v4.985c0 2.61 2.0875 4.6388 4.6675 4.6388h0.29c1.9712 0 3.5362-1.1025 4.2325-2.725 0.0863-0.145 0.115-0.31875 0.115-0.4925 0-0.6675-0.55125-1.13-1.13-1.13-0.3775 0-0.75375 0.2025-0.95625 0.695-0.3775 0.8125-1.1312 1.4788-2.2612 1.4788h-0.29c-1.3612 0-2.4638-1.1025-2.4638-2.465v-1.4775h6.3188c0.60875 0 1.1012-0.5225 1.1012-1.1012v-2.3775c0-2.695-2.0862-4.695-4.6662-4.695h-0.29zm-2.4638 4.6662c0-1.3912 1.13-2.4638 2.4925-2.4638h0.29c1.275 0 2.435 1.0725 2.435 2.4925v1.4212h-5.2175v-1.45zm-9.5-4.12c-0.2025-0.435-0.57875-0.58-0.95625-0.58-0.55 0-1.13 0.405-1.13 1.1012v12.059c0 0.78125 0.55125 1.13 1.1012 1.13 0.55125 0 1.1012-0.34875 1.1012-1.13v-9.015c0-0.92875 0.20375-1.9425 1.9425-1.9425 0.725 0 1.1012 0.37625 1.3338 0.60875 0.26125 0.26 0.57875 0.405 0.89875 0.405 0.57875 0 1.0725-0.43375 1.0725-1.0425 0-0.26125-0.0875-0.4925-0.26125-0.75375-0.695-1.015-1.885-1.42-3.015-1.42-1.5062 0-2.0875 0.58-2.0875 0.58m-9.6988 0.52125v8.55c0 1.3625-1.1012 2.465-2.4912 2.465h-0.26125c-1.3625 0-2.4638-1.1025-2.4638-2.465v-8.55c0-0.725-0.55125-1.1012-1.1025-1.1012-0.55 0-1.1 0.37625-1.1 1.1012v8.55c0 3.2188 2.1738 4.6388 4.6662 4.6388h0.26125c1.0138 0 1.9412-0.29 2.4912-0.84125 0.11625 0.58 0.60875 0.84125 1.1038 0.84125 0.55 0 1.1012-0.3775 1.1012-1.0725v-12.116c0-0.725-0.55125-1.1012-1.1012-1.1012-0.5525 0-1.1038 0.37625-1.1038 1.1012m-31.628 0v8.55c0 1.3625-1.1012 2.465-2.4925 2.465h-0.26125c-1.3625 0-2.4638-1.1025-2.4638-2.465v-8.55c0-0.725-0.55125-1.1012-1.1012-1.1012-0.55125 0-1.1025 0.37625-1.1025 1.1012v8.55c0 3.2188 2.1738 4.6388 4.6675 4.6388h0.26125c1.0138 0 1.9412-0.29 2.4925-0.84125 0.11625 0.58 0.60875 0.84125 1.1012 0.84125 0.55 0 1.1012-0.3775 1.1012-1.0725v-12.116c0-0.725-0.55125-1.1012-1.1012-1.1012-0.55 0-1.1012 0.37625-1.1012 1.1012m-15.49-1.11c-2.5512 0-4.6662 2.0288-4.6662 4.6662v4.985c0 2.61 2.0862 4.6388 4.6662 4.6388h0.29c2.58 0 4.6662-2.0288 4.6662-4.6388 0-0.78125-0.55125-1.13-1.1012-1.13-0.55125 0-1.0725 0.34875-1.1025 1.13-0.0862 1.3625-1.1 2.465-2.4625 2.465h-0.26125c-1.3912 0-2.4925-1.1025-2.4925-2.465v-4.985c0-1.3612 1.1012-2.4638 2.4638-2.4638h0.29c1.3625 0 2.3762 1.0138 2.4625 2.4925 0.03 0.725 0.55125 1.0738 1.1025 1.0738 0.55 0 1.1012-0.3775 1.1012-1.1025 0-2.58-2.1162-4.6662-4.6662-4.6662h-0.29zm-35.556 0c-1.0138 0-1.9425 0.31875-2.4925 0.86875-0.11625-0.57875-0.61-0.86875-1.1025-0.86875-0.57875 0-1.1288 0.405-1.1288 1.1012v12.116c0 0.72375 0.55 1.0725 1.1012 1.0725 0.55 0 1.1012-0.34875 1.1012-1.0725v-8.5512c0-1.3912 1.13-2.4638 2.4925-2.4638h0.26125c1.39 0 2.4912 1.1025 2.4912 2.4638v8.5512c0 0.72375 0.55125 1.0725 1.1012 1.0725 0.55125 0 1.0738-0.34875 1.0738-1.0725v-8.5512c0-3.1888-2.175-4.6662-4.6388-4.6662h-0.26zm-10.852 1.1012v12.116c0 0.72375 0.55125 1.0725 1.1012 1.0725 0.55125 0 1.1012-0.34875 1.1012-1.0725v-12.116c0-0.725-0.55-1.1012-1.1012-1.1012-0.55 0-1.1012 0.37625-1.1012 1.1012"/><path id="path1004-9" d="m349.04 59.874c-2.685 0-6.0412 1.0825-7.6938 4.8012-0.15375 0.2575-0.20625 0.5675-0.20625 0.92875 0 1.085 0.98125 1.8088 1.9625 1.8088 0.67 0 1.3425-0.25875 1.755-1.035 0.98125-1.7025 2.065-2.58 4.1825-2.58h0.36125c2.2725 0 4.1825 1.0838 4.1825 4.1812 0 0.25875 0 0.67125-0.155 0.87875-1.29 1.7038-13.064 0.31-13.064 8.4675v0.61875c0 4.855 4.1825 7.3838 8.3138 7.3838h0.465c2.1162 0 4.0788-0.7225 5.5762-2.0125 0.67125 0.98125 1.7038 1.7038 3.51 1.9625 0.0525 0.05 0.2075 0.05 0.3625 0.05 1.2388 0 1.91-0.9275 1.91-1.9625 0-0.825-0.46375-1.6512-1.6525-1.8575-0.88-0.157-1.35-0.723-1.35-1.704v-11.979c0-4.3888-3.51-7.9512-8.1062-7.9512h-0.36125zm-4.75 17.968v-0.4125c0-3.5125 5.4738-3.5125 9.2938-4.4412v4.0788c0 2.4788-2.0138 4.3888-4.44 4.3888h-0.465c-2.6338 0-4.3888-1.3938-4.3888-3.6138m-16.244-17.968c-1.8062 0-3.4588 0.5675-4.44 1.5488-0.2075-1.0338-1.085-1.5488-1.9625-1.5488-1.0325 0-2.0138 0.72125-2.0138 1.9612v21.584c0 1.29 0.98125 1.9088 1.9625 1.9088s1.9625-0.61875 1.9625-1.9088v-15.232c0-2.4788 2.0138-4.3888 4.44-4.3888h0.465c2.4775 0 4.44 1.9612 4.44 4.3888v15.232c0 1.29 0.98125 1.9088 1.9625 1.9088 0.98 0 1.9112-0.61875 1.9112-1.9088v-15.232c0-5.68-3.8738-8.3125-8.2625-8.3125h-0.465zm-23.895 0c-2.685 0-6.0412 1.0825-7.6938 4.8012-0.155 0.2575-0.20625 0.5675-0.20625 0.92875 0 1.085 0.98 1.8088 1.9612 1.8088 0.67125 0 1.3438-0.25875 1.7562-1.035 0.98125-1.7025 2.065-2.58 4.1825-2.58h0.36125c2.2712 0 4.1825 1.0838 4.1825 4.1812 0 0.25875 0 0.67125-0.155 0.87875-1.2912 1.7038-13.064 0.31-13.064 8.4675v0.61875c0 4.855 4.1825 7.3838 8.3125 7.3838h0.465c2.1175 0 4.08-0.7225 5.5762-2.0125 0.6725 0.98125 1.705 1.7038 3.5112 1.9625 0.0525 0.05 0.2075 0.05 0.36125 0.05 1.24 0 1.9112-0.9275 1.9112-1.9625 0-0.825-0.46375-1.6512-1.6525-1.8575-0.8775-0.15625-1.3412-0.7225-1.3412-1.7038v-11.979c0-4.3888-3.5112-7.9512-8.1075-7.9512h-0.36125zm-4.75 17.968v-0.4125c0-3.5125 5.4725-3.5125 9.2938-4.4412v4.0788c0 2.4788-2.015 4.3888-4.4412 4.3888h-0.465c-2.6325 0-4.3875-1.3938-4.3875-3.6138m-15.3-17.969c-4.595 0-8.3125 3.7162-8.3125 8.3125v8.88c0 4.6475 3.7175 8.2612 8.3125 8.2612h0.5175c3.51 0 6.2988-1.9625 7.5375-4.8538 0.155-0.2575 0.20625-0.5675 0.20625-0.8775 0-1.1862-0.98125-2.0138-2.0138-2.0138-0.67125 0-1.3425 0.36125-1.7025 1.24-0.6725 1.4462-2.0138 2.6325-4.0275 2.6325h-0.5175c-2.4262 0-4.3888-1.9612-4.3888-4.3888v-2.6325h11.256c1.085 0 1.9625-0.93 1.9625-1.9625v-4.2338c0-4.8012-3.7188-8.3638-8.3125-8.3638h-0.5175zm-4.3888 8.3125c0-2.4788 2.0138-4.3888 4.44-4.3888h0.51625c2.2725 0 4.3375 1.91 4.3375 4.44v2.53h-9.2938v-2.5812zm-17.695-8.3125c-2.0125 0-3.6662 0.77375-4.44 1.5488-0.155-1.0338-1.0325-1.5488-1.91-1.5488-0.98125 0-1.9638 0.61875-1.9638 1.91v32.426c0 1.29 0.9825 1.9612 1.9638 1.9612 0.98125 0 1.9625-0.67125 1.9625-1.9612v-10.379c0.8775 0.98125 2.6838 1.4962 4.4912 1.4962h0.36125c4.7 0 8.365-3.6138 8.365-8.2612v-8.88c0-4.5962-3.8212-8.3125-8.365-8.3125h-0.465zm-4.3875 17.606v-9.6038c0-2.53 2.065-4.0788 4.3875-4.0788h0.465c2.4788 0 4.44 1.9612 4.44 4.3888v8.88c0 2.4275-1.9612 4.3888-4.44 4.3888h-0.465c-2.3225 0-4.3875-1.5488-4.3875-3.975m-16.44-17.606c-4.5962 0-8.3138 3.7162-8.3138 8.3125v8.88c0 4.6475 3.7175 8.2612 8.3138 8.2612h0.51625c4.595 0 8.3125-3.6138 8.3125-8.2612v-8.88c0-4.5962-3.7175-8.3125-8.3125-8.3125h-0.51625zm-4.3888 17.192v-8.88c0-2.4275 1.9612-4.3888 4.3888-4.3888h0.51625c2.4262 0 4.3888 1.9612 4.3888 4.3888v8.88c0 2.4275-1.9625 4.3888-4.3888 4.3888h-0.465c-2.4788 0-4.44-1.9612-4.44-4.3888m-14.952-16.16c-0.3625-0.775-1.0325-1.0325-1.7038-1.0325-0.98125 0-2.0138 0.72125-2.0138 1.9612v21.48c0 1.3938 0.98 2.0125 1.9612 2.0125 0.98125 0 1.9625-0.61875 1.9625-2.0125v-16.059c0-1.6525 0.36125-3.4588 3.4588-3.4588 1.2912 0 1.9625 0.67 2.375 1.0838 0.465 0.465 1.0325 0.7225 1.6012 0.7225 1.0325 0 1.91-0.77375 1.91-1.8588 0-0.46375-0.15375-0.8775-0.465-1.3425-1.2388-1.8075-3.355-2.5288-5.3688-2.5288-2.6862 0-3.7175 1.0325-3.7175 1.0325m-12.774 0.92875v15.231c0 2.4275-1.9625 4.3888-4.4412 4.3888h-0.46375c-2.4288 0-4.39-1.9612-4.39-4.3888v-15.231c0-1.2912-0.98125-1.9612-1.9625-1.9612-0.98 0-1.9612 0.67-1.9612 1.9612v15.231c0 5.7325 3.8725 8.2612 8.3138 8.2612h0.46375c1.8075 0 3.46-0.515 4.4412-1.4962 0.20625 1.0325 1.0838 1.4962 1.9612 1.4962 0.98125 0 1.9625-0.67 1.9625-1.9088v-21.584c0-1.2912-0.98125-1.9612-1.9625-1.9612s-1.9612 0.67-1.9612 1.9612m-26.82-1.96c-4.595 0-8.3138 3.7162-8.3138 8.3125v8.88c0 4.6475 3.7188 8.2612 8.3138 8.2612h0.51625c3.5112 0 6.3-1.9625 7.5388-4.8538 0.155-0.2575 0.20625-0.5675 0.20625-0.8775 0-1.1862-0.98125-2.0138-2.0138-2.0138-0.67125 0-1.3425 0.36125-1.7025 1.24-0.6725 1.4462-2.015 2.6325-4.0288 2.6325h-0.51625c-2.4262 0-4.3888-1.9612-4.3888-4.3888v-2.6325h11.256c1.085 0 1.9625-0.93 1.9625-1.9625v-4.2338c0-4.8012-3.7188-8.3638-8.3138-8.3638h-0.51625zm-4.3888 8.3125c0-2.4788 2.0138-4.3888 4.4412-4.3888h0.51625c2.2712 0 4.3362 1.91 4.3362 4.44v2.53h-9.2938v-2.5812z"/><path id="path1016-2" d="m33.066 26.218c-1.75 2.2088-3.5675 4.3875-5.3388 6.6-0.81875 1.0238-1.245 2.33-1.9288 3.4538-1.5375 2.5262-2.795 4.9012-4.01 7.5988-4.7338 10.515-7.5762 23.112-6.675 35.186 0.495 6.6112 1.8088 13.438 4.0825 19.669 0.715 1.9562 1.3775 3.94 2.285 5.815 0.625 1.2912 2.2325 4.2238 2.3712 4.475-13.75 6.1188-23.353 19.875-23.353 35.895 0 21.701 17.593 39.294 39.294 39.294 4.695 0 9.1788-0.86625 13.352-2.3775 0.05375 0.15875 0.13 0.27625 0.20375 0.40125 2.16 8.5388 9.8738 14.865 19.085 14.865 10.885 0 19.709-8.8225 19.709-19.709 0-9.3825-6.5625-17.219-15.345-19.206 0.055-0.215 0.11875-0.4275 0.1775-0.64125 0.27-0.7975 0.505-1.6062 0.72625-2.4238 0.31625-1.025 0.61125-2.0538 0.78-3.1112 0.0875-0.5475 0.16375-1.2525 0.22625-1.9275 0.1-0.75875 0.1775-1.5212 0.23375-2.2925 0.06-0.04 0.12875-0.0538 0.2075-0.0538 0.165 0 0.3725 0.0613 0.63125 0.0713 3.705 0.15875 7.3975 0.70625 11.109 0.70625 0.5875 0 1.1775-0.0137 1.7675-0.045 8.022-0.45 16.652-2.04 24.042-5.3 7.69-3.3938 15.034-7.7662 21.394-13.285 3.0338-2.6338 5.8438-5.5438 8.2488-8.7675 1.1525-1.5462 2.495-2.8538 3.5425-4.4962 0.88625-1.3912 1.8775-2.6862 2.6575-4.1412 0.55-1.0312 0.67875-1.5062 1.2125-2.5325 0.3325-0.64 0.73375-1.2025 0.97625-1.8838 0.52-1.4588 0.77-3.0262 0.82375-4.5712 0.1025-3.0238-0.8325-6.0962-2.5225-8.6075-1.445-2.1475-4.6812-4.185-7.2325-4.89-1.2588-0.34625-2.5875-0.52-3.92-0.52-1.8538 0-3.715 0.335-5.41 0.995-3.195 1.2425-5.3938 3.99-7.0912 6.8612-1.8888 3.1925-3.6688 6.06-6.3188 8.71-4.905 4.905-10.231 8.8238-16.691 11.458-5.5588 2.265-11.326 3.33-17.015 3.33-19.609 0-38.315-12.638-44.645-32.269-3.801-11.791-2.722-25.061 3.298-35.982 3.1713-5.75 7.3825-10.845 12.543-14.919 2.7387-2.1638 5.85-4.2325 9.05-5.5825 2.8875-1.2175 5.8112-1.8862 8.77-2.8912 2.3175-0.78625 5.44-0.9925 7.92-1.1788 1.19-0.09 2.4-0.15125 3.6112-0.15125 1.44 0 2.88 0.0875 4.2862 0.31875 5.3013 0.87375 10.786 2.0825 15.627 4.5562 2.6312 1.345 5.505 3.2088 7.8812 5.0925 2.3662 1.8762 4.885 4.2375 6.8012 6.73 1.5088 1.9325 2.44 3.3625 3.8525 5.4162 1.4825 2.3362 3.6888 4.8688 3.8538 7.8262h-0.30375c-6.025 0-12.175 0.04125-18.202 0.04125-2.9038 0-5.915-0.31375-8.88-0.31375-3.115 0-6.18 0.345-9.0212 1.765-5.76 2.8762-10.148 11.274-6.57 17.366 1.7312 2.9462 2.6075 5.2925 5.8813 6.915 2.91 1.4412 5.5662 1.7962 8.6575 1.7962 0.35875 0 0.725-0.005 1.0962-0.01375 2.9288-0.065 5.8588-0.0875 8.79-0.0875 5.5425 0 11.088 0.0775 16.622 0.0775h13.178c0.9375 0 1.8662 0.015 2.7862 0.015 2.7688 0 5.4688-0.12875 8.1362-1.1538 5.9725-2.295 8.8362-8.11 8.4162-14.309-0.1225-1.7938-0.345-3.5488-0.41-5.355-0.3275-1.3112-0.52375-3.4762-0.8775-4.6412-0.49-1.6112-0.50875-2.1938-0.82875-3.2825-0.3475-1.1712-0.37-1.105-1.0738-3.7212-1.3212-4.91-3.6212-9.8262-5.985-14.449-1.5388-3.0138-3.51-5.445-5.4075-8.0838-0.41375-0.57125-1.5275-1.895-1.865-2.3925-0.70875-1.0488-5.13-6.135-6.5262-7.2775-1.4012-1.1462-2.6138-2.4512-4.05-3.565-1.47-1.1362-2.92-2.2988-4.4025-3.42-1.22-0.92125-2.4925-1.4325-3.73-2.205-6.75-4.187-14.18-7.3832-21.91-9.1795-5.31-1.235-10.817-1.8425-16.352-1.8425-21.289 0-43.052 8.9775-56.321 25.718m99.137 31.599h-0.2075 0.2075zm-118.79 87.052c0-14.548 11.793-26.341 26.341-26.341s26.341 11.794 26.341 26.341c0 14.548-11.794 26.341-26.341 26.341-14.549 0-26.341-11.794-26.341-26.341m45.468 32.599c0-7.5325 6.1062-13.639 13.639-13.639 7.5325 0 13.639 6.1062 13.639 13.639 0 7.5325-6.1062 13.639-13.639 13.639-7.5325 0-13.639-6.1062-13.639-13.639"/></svg>
