<?xml version="1.0" encoding="UTF-8" standalone="no"?>
<svg width="278px" height="89px" viewBox="0 0 278 89" version="1.1" xmlns="http://www.w3.org/2000/svg" xmlns:xlink="http://www.w3.org/1999/xlink" xmlns:sketch="http://www.bohemiancoding.com/sketch/ns">
    <!-- Generator: Sketch 3.5.1 (25234) - http://www.bohemiancoding.com/sketch -->
    <title>Page 1</title>
    <desc>Created with Sketch.</desc>
    <defs>
        <path id="path-1" d="M0,88.4565994 L277.164011,88.4565994 L277.164011,0 L0,0 L0,88.4565994 Z"></path>
    </defs>
    <g id="IO" stroke="none" stroke-width="1" fill="none" fill-rule="evenodd" sketch:type="MSPage">
        <g id="Hompage_2" sketch:type="MSArtboardGroup" transform="translate(-581.000000, -37.000000)">
            <g id="Page-1" sketch:type="MSLayerGroup" transform="translate(581.000000, 37.000000)">
                <path d="M136.913373,88.4565994 L147.568252,88.4565994 L147.568252,21.0377259 L136.913373,21.0377259 L136.913373,88.4565994 Z" id="Fill-1" fill="#00B4FF" sketch:type="MSShapeGroup"></path>
                <path d="M111.987574,15.7230596 L152.895691,15.7230596 L152.895691,26.3532001 L111.987574,26.3532001 L111.987574,15.7230596 Z" id="Fill-2" fill="#507AFF" sketch:type="MSShapeGroup"></path>
                <path d="M152.894884,5.09332291 L183.244949,5.09332291 L183.244949,15.7234635 L152.894884,15.7234635 L152.894884,5.09332291 Z" id="Fill-3" fill="#DC32FF" sketch:type="MSShapeGroup"></path>
                <path d="M158.222324,21.0377259 L147.567445,21.0377259 L147.567445,52.7342701 L158.222324,52.7342701 L158.222324,21.0377259 Z" id="Fill-4" fill="#B400C8" sketch:type="MSShapeGroup"></path>
                <path d="M147.567849,88.4565994 L158.222727,88.4565994 L158.222727,52.735078 L147.567849,52.735078 L147.567849,88.4565994 Z" id="Fill-5" fill="#64DCFF" sketch:type="MSShapeGroup"></path>
                <g id="Group-51">
                    <path d="M73.5414158,15.7181318 C56.4000119,15.7181318 42.4542646,29.6320722 42.4542646,46.7340853 C42.4542646,46.7898251 42.4578956,46.845161 42.458299,46.9009007 L31.9248563,46.9009007 C31.8820915,36.2182517 35.9419189,25.5218697 44.1116005,17.3717452 C52.2385173,9.26322356 62.8897649,5.20916471 73.5414158,5.20916471 C82.2630048,5.20916471 90.9821731,7.93112372 98.3175385,13.3673674 L91.9633417,21.7695326 C86.803734,17.969938 80.4317858,15.7181318 73.5414158,15.7181318" id="Fill-6" fill="#B400C8" sketch:type="MSShapeGroup"></path>
                    <path d="M95.5130986,24.8127628 C94.4096873,23.7121042 93.2215534,22.696267 91.9632207,21.7700981 L98.3174175,13.3671251 C99.9408643,14.5703772 101.49855,15.9016692 102.971514,17.3715028 L95.5130986,24.8127628 Z" id="Fill-8" fill="#B400C8" sketch:type="MSShapeGroup"></path>
                    <path d="M73.5414158,77.7504831 C82.1121178,77.7504831 89.8840065,74.271998 95.5128162,68.6556098 L102.971231,76.0968698 C94.8451213,84.2053914 84.1926634,88.2594502 73.5414158,88.2594502 C62.8897649,88.2594502 52.2385173,84.2053914 44.1116005,76.0968698 C36.027045,68.0311628 31.9672176,57.4725145 31.9248563,46.9009411 L42.458299,46.9009411 C42.5490733,63.926615 56.4556868,77.7504831 73.5414158,77.7504831" id="Fill-10" fill="#FF32FF" sketch:type="MSShapeGroup"></path>
                    <path d="M242.43528,65.8941887 C245.208937,64.8977392 247.759492,63.3168299 249.906605,61.1756955 C253.742926,57.3478271 255.855747,52.2581394 255.855747,46.8457264 L255.855747,5.3414053 L266.515063,5.29939852 L266.530798,46.8457264 C266.530798,54.7631979 263.524758,62.6802655 257.469915,68.7215685 C251.417895,74.7592363 243.487454,77.779282 235.555803,77.7825133 L242.43528,65.8941887 Z" id="Fill-12" fill="#FF32FF" sketch:type="MSShapeGroup"></path>
                    <path d="M235.555763,67.1105679 C237.94131,67.1089522 240.255448,66.6775748 242.43524,65.8939867 L235.555763,77.7823113 L235.555763,67.1105679 Z" id="Fill-14" fill="#FF32FF" sketch:type="MSShapeGroup"></path>
                    <path d="M228.683104,65.9059021 C230.857651,66.6834316 233.164931,67.1111737 235.543216,67.1111737 C235.547654,67.1111737 235.551688,67.1107698 235.555722,67.1107698 L235.555722,77.7825133 L228.683104,65.9059021 Z" id="Fill-16" fill="#B400C8" sketch:type="MSShapeGroup"></path>
                    <path d="M213.617041,68.7214878 C207.562198,62.6805887 204.555755,54.7631172 204.555755,46.8452417 L204.577137,5.32032113 L215.231209,5.32032113 L215.231209,46.8452417 C215.231209,52.2584625 217.34403,57.3477463 221.180351,61.1756148 C223.335129,63.3252313 225.89698,64.9097758 228.683144,65.9058213 L235.555359,77.7824325 C227.616043,77.7856638 219.675112,74.7656181 213.617041,68.7214878" id="Fill-18" fill="#B400C8" sketch:type="MSShapeGroup"></path>
                    <path d="M204.555956,46.6187282 L204.555956,46.8457264 C204.555956,54.762794 207.561996,62.6802655 213.617243,68.7215685 C219.67491,74.765295 227.615841,77.7857446 235.555964,77.7825133 L229.669356,87.9550222 C221.050644,86.7360176 212.742179,82.822116 206.113239,76.2080666 C197.985919,68.0999489 193.92246,57.4726357 193.92246,46.8457264 L193.92246,46.6187282 L204.555956,46.6187282 Z" id="Fill-20" fill="#00B4FF" sketch:type="MSShapeGroup"></path>
                    <path d="M193.922743,5.20900314 L204.576814,5.20900314 L204.556239,46.618809 L193.922743,46.618809 L193.922743,5.20900314 Z" id="Fill-22" fill="#64DCFF" sketch:type="MSShapeGroup"></path>
                    <path d="M235.555763,88.3704047 C233.588584,88.3708086 231.620599,88.2310553 229.669558,87.9551838 L235.555763,77.7826748 L235.555763,88.3704047 Z" id="Fill-24" fill="#00B4FF" sketch:type="MSShapeGroup"></path>
                    <path d="M257.469673,68.7214878 C263.524516,62.6805887 266.530959,54.7631172 266.530959,46.8452417 L266.509577,5.34092061 L277.163648,5.34092061 L277.163648,46.8452417 C277.163648,57.4725549 273.10019,68.0998681 264.973273,76.2079858 C258.350788,82.8159765 250.050795,86.7294742 241.440556,87.9517101 L235.555561,77.7824325 C243.487212,77.7796051 251.418057,74.7591556 257.469673,68.7214878" id="Fill-26" fill="#507AFF" sketch:type="MSShapeGroup"></path>
                    <path d="M241.440556,87.9519121 C239.489918,88.2289953 237.523143,88.3695565 235.555561,88.3703643 L235.555561,77.7822305 L241.440556,87.9519121 Z" id="Fill-28" fill="#507AFF" sketch:type="MSShapeGroup"></path>
                    <path d="M235.411371,77.7828364 C236.81696,77.7828364 238.191484,77.2088783 239.182738,76.220911 C240.173186,75.231328 240.738407,73.8600488 240.738407,72.4572644 C240.738407,71.064174 240.173186,69.6928947 239.182738,68.7049274 C238.191484,67.7169601 236.81696,67.1425981 235.411371,67.1425981 C234.015062,67.1425981 232.640538,67.7169601 231.649687,68.7049274 C230.659642,69.6928947 230.084335,71.064174 230.084335,72.4572644 C230.084335,73.8600488 230.659642,75.231328 231.649687,76.220911 C232.640538,77.2088783 234.015062,77.7828364 235.411371,77.7828364" id="Fill-30" fill="#B400C8" sketch:type="MSShapeGroup"></path>
                    <path d="M152.895005,58.0545913 C151.489013,58.0545913 150.114893,57.4806331 149.123235,56.4926658 C148.133191,55.5030829 147.56797,54.1318036 147.56797,52.7290193 C147.56797,51.3359288 148.133191,49.9646496 149.123235,48.9766823 C150.114893,47.9887149 151.489013,47.4143529 152.895005,47.4143529 C154.291315,47.4143529 155.665435,47.9887149 156.656286,48.9766823 C157.646734,49.9646496 158.222041,51.3359288 158.222041,52.7290193 C158.222041,54.1318036 157.646734,55.5030829 156.656286,56.4926658 C155.665435,57.4806331 154.291315,58.0545913 152.895005,58.0545913" id="Fill-32" fill="#64DCFF" sketch:type="MSShapeGroup"></path>
                    <mask id="mask-2" sketch:name="Clip 35" fill="white">
                        <use xlink:href="#path-1"></use>
                    </mask>
                    <g id="Clip-35"></g>
                    <path d="M0,35.983256 L10.6544751,35.983256 L10.6544751,88.4565994 L0,88.4565994 L0,35.983256 Z" id="Fill-34" fill="#64DCFF" sketch:type="MSShapeGroup" mask="url(#mask-2)"></path>
                    <path d="M4.03441065e-05,5.34124374 L10.6549189,5.34124374 L10.6549189,35.9831752 L5.32667272,35.9831752 L4.03441065e-05,35.9831752 L4.03441065e-05,5.34124374 Z" id="Fill-36" fill="#B400C8" sketch:type="MSShapeGroup" mask="url(#mask-2)"></path>
                    <path d="M21.3089502,5.34132452 L10.6544751,5.34132452 L10.6544751,57.9685581 L21.3089502,57.9685581 L21.3089502,5.34132452 Z" id="Fill-37" fill="#507AFF" sketch:type="MSShapeGroup" mask="url(#mask-2)"></path>
                    <path d="M21.3089502,57.9681542 L10.6544751,57.9681542 L10.6544751,88.3964166 L21.3089502,88.3964166 L21.3089502,57.9681542 Z" id="Fill-38" fill="#FF32FF" sketch:type="MSShapeGroup" mask="url(#mask-2)"></path>
                    <path d="M15.9815109,52.7345529 C17.3870996,52.7345529 18.7616233,53.308511 19.752878,54.2964783 C20.7433258,55.2860613 21.3085467,56.6573405 21.3085467,58.0601249 C21.3085467,59.4532153 20.7433258,60.8244946 19.752878,61.8124619 C18.7616233,62.8004292 17.3870996,63.3747912 15.9815109,63.3747912 C14.5852014,63.3747912 13.2110811,62.8004292 12.2198264,61.8124619 C11.229782,60.8244946 10.6544751,59.4532153 10.6544751,58.0601249 C10.6544751,56.6573405 11.229782,55.2860613 12.2198264,54.2964783 C13.2110811,53.308511 14.5852014,52.7345529 15.9815109,52.7345529" id="Fill-39" fill="#FF32FF" sketch:type="MSShapeGroup" mask="url(#mask-2)"></path>
                    <path d="M37.2479384,52.1699655 C38.653527,52.1699655 40.0280507,51.5960074 41.0197089,50.6080401 C42.0097532,49.6184571 42.5749742,48.2471779 42.5749742,46.8443935 C42.5749742,45.4513031 42.0097532,44.0800238 41.0197089,43.0920565 C40.0280507,42.1040892 38.653527,41.5297272 37.2479384,41.5297272 C35.8516288,41.5297272 34.4775086,42.1040892 33.4866573,43.0920565 C32.4962095,44.0800238 31.9209025,45.4513031 31.9209025,46.8443935 C31.9209025,48.2471779 32.4962095,49.6184571 33.4866573,50.6080401 C34.4775086,51.5960074 35.8516288,52.1699655 37.2479384,52.1699655" id="Fill-40" fill="#FF32FF" sketch:type="MSShapeGroup" mask="url(#mask-2)"></path>
                    <path d="M199.130279,52.0544064 C200.536271,52.0544064 201.910392,51.4804483 202.90205,50.492481 C203.892094,49.5028981 204.457315,48.1316188 204.457315,46.7288345 C204.457315,45.335744 203.892094,43.9644648 202.90205,42.9764974 C201.910392,41.9885301 200.536271,41.4141681 199.130279,41.4141681 C197.73397,41.4141681 196.35985,41.9885301 195.368998,42.9764974 C194.37855,43.9644648 193.803243,45.335744 193.803243,46.7288345 C193.803243,48.1316188 194.37855,49.5028981 195.368998,50.492481 C196.35985,51.4804483 197.73397,52.0544064 199.130279,52.0544064" id="Fill-41" fill="#64DCFF" sketch:type="MSShapeGroup" mask="url(#mask-2)"></path>
                    <path d="M271.836774,10.6401576 C273.242766,10.6401576 274.616886,10.0661994 275.608544,9.07823213 C276.598589,8.08864917 277.16381,6.71736992 277.16381,5.31458559 C277.16381,3.92149512 276.598589,2.55021588 275.608544,1.56224856 C274.616886,0.574281247 273.242766,-8.07822826e-05 271.836774,-8.07822826e-05 C270.440464,-8.07822826e-05 269.066344,0.574281247 268.075493,1.56224856 C267.085045,2.55021588 266.509738,3.92149512 266.509738,5.31458559 C266.509738,6.71736992 267.085045,8.08864917 268.075493,9.07823213 C269.066344,10.0661994 270.440464,10.6401576 271.836774,10.6401576" id="Fill-42" fill="#507AFF" sketch:type="MSShapeGroup" mask="url(#mask-2)"></path>
                    <path d="M261.182622,10.6401576 C262.588614,10.6401576 263.962734,10.0661994 264.953989,9.07823213 C265.944436,8.08864917 266.509657,6.71736992 266.509657,5.31458559 C266.509657,3.92149512 265.944436,2.55021588 264.953989,1.56224856 C263.962734,0.574281247 262.588614,-8.07822826e-05 261.182622,-8.07822826e-05 C259.786312,-8.07822826e-05 258.412192,0.574281247 257.421341,1.56224856 C256.430893,2.55021588 255.855586,3.92149512 255.855586,5.31458559 C255.855586,6.71736992 256.430893,8.08864917 257.421341,9.07823213 C258.412192,10.0661994 259.786312,10.6401576 261.182622,10.6401576" id="Fill-43" fill="#FF32FF" sketch:type="MSShapeGroup" mask="url(#mask-2)"></path>
                    <path d="M152.895691,15.7230596 L183.244949,15.7230596 L183.244949,26.3532001 L152.895691,26.3532001 L152.895691,15.7230596 Z" id="Fill-44" fill="#B400C8" sketch:type="MSShapeGroup" mask="url(#mask-2)"></path>
                    <path d="M111.987574,5.09332291 L182.609529,5.09332291 L182.609529,15.7234635 L111.987574,15.7234635 L111.987574,5.09332291 Z" id="Fill-45" fill="#FF32FF" sketch:type="MSShapeGroup" mask="url(#mask-2)"></path>
                    <path d="M152.895005,26.3583298 C151.489013,26.3583298 150.114893,25.7843717 149.123235,24.7964044 C148.133191,23.8068214 147.56797,22.4355422 147.56797,21.0327578 C147.56797,19.6396674 148.133191,18.2683881 149.123235,17.2804208 C150.114893,16.2924535 151.489013,15.7180915 152.895005,15.7180915 C154.291315,15.7180915 155.665435,16.2924535 156.656286,17.2804208 C157.646734,18.2683881 158.222041,19.6396674 158.222041,21.0327578 C158.222041,22.4355422 157.646734,23.8068214 156.656286,24.7964044 C155.665435,25.7843717 154.291315,26.3583298 152.895005,26.3583298" id="Fill-46" fill="#B400C8" sketch:type="MSShapeGroup" mask="url(#mask-2)"></path>
                    <path d="M87.9043212,61.0643372 L95.5128162,68.6554482 C94.0023329,70.1632496 92.3328938,71.5102941 90.5391948,72.6836568 L84.602963,63.727729 C85.7785902,62.9623169 86.8884566,62.0777509 87.9043212,61.0643372" id="Fill-47" fill="#507AFF" sketch:type="MSShapeGroup" mask="url(#mask-2)"></path>
                    <path d="M73.5414158,15.7181318 C56.4000119,15.7181318 42.4542646,29.6320722 42.4542646,46.7340853 C42.4542646,46.7502418 42.4550715,46.7647826 42.4550715,46.780939 L53.2313858,46.780939 C53.2313858,46.7647826 53.2293686,46.7502418 53.2293686,46.7340853 C53.2293686,41.3208646 55.341786,36.2319847 59.1785105,32.4041162 C63.015235,28.5762478 68.1159404,26.468638 73.5414158,26.468638 C77.5366927,26.468638 81.351228,27.6197855 84.619504,29.7508221 L91.2843504,21.2880702 C86.2490025,17.7825231 80.1336428,15.7181318 73.5414158,15.7181318" id="Fill-48" fill="#64DCFF" sketch:type="MSShapeGroup" mask="url(#mask-2)"></path>
                    <path d="M95.5130986,24.8127628 C94.2140184,23.5166111 92.7955196,22.340421 91.2842294,21.2878279 L84.6197865,29.7513876 C85.7893621,30.5139724 86.8927734,31.3953071 87.9046036,32.4038739 L95.5130986,24.8127628 Z" id="Fill-49" fill="#64DCFF" sketch:type="MSShapeGroup" mask="url(#mask-2)"></path>
                    <path d="M59.1784298,61.0644179 C63.0151543,64.8922864 68.1154563,66.9998961 73.5413352,66.9998961 C77.530157,66.9998961 81.3386406,65.8519799 84.6028823,63.727002 L90.5395175,72.6837375 C85.6502153,75.882312 79.8116162,77.7504023 73.5413352,77.7504023 C56.415262,77.7504023 42.480811,63.8615045 42.4549908,46.7804947 L53.2313051,46.7804947 C53.2434083,52.1763473 55.3530016,57.247859 59.1784298,61.0644179" id="Fill-50" fill="#507AFF" sketch:type="MSShapeGroup" mask="url(#mask-2)"></path>
                </g>
            </g>
        </g>
    </g>
</svg>